<?xml version="1.0" encoding="UTF-8" standalone="no"?>
<svg
   xmlns:dc="http://purl.org/dc/elements/1.1/"
   xmlns:cc="http://creativecommons.org/ns#"
   xmlns:rdf="http://www.w3.org/1999/02/22-rdf-syntax-ns#"
   xmlns:svg="http://www.w3.org/2000/svg"
   xmlns="http://www.w3.org/2000/svg"
   xmlns:xlink="http://www.w3.org/1999/xlink"
   xmlns:sodipodi="http://sodipodi.sourceforge.net/DTD/sodipodi-0.dtd"
   xmlns:inkscape="http://www.inkscape.org/namespaces/inkscape"
   width="600"
   height="660"
   viewBox="-300 -300 600 660"
   id="svg2"
   version="1.1"
   inkscape:version="0.48.2 r9819"
   sodipodi:docname="Ecu-Twal.svg"
   inkscape:export-filename="C:\Users\Emmanuel\Documents\Héraldique\Ecu-Twal.png"
   inkscape:export-xdpi="144"
   inkscape:export-ydpi="144">
  <metadata
     id="metadata29">
    <rdf:RDF>
      <cc:Work
         rdf:about="">
        <dc:format>image/svg+xml</dc:format>
        <dc:type
           rdf:resource="http://purl.org/dc/dcmitype/StillImage" />
        <dc:title></dc:title>
      </cc:Work>
    </rdf:RDF>
  </metadata>
  <sodipodi:namedview
     pagecolor="#ffffff"
     bordercolor="#666666"
     borderopacity="1"
     objecttolerance="10"
     gridtolerance="10"
     guidetolerance="10"
     inkscape:pageopacity="0"
     inkscape:pageshadow="2"
     inkscape:window-width="1440"
     inkscape:window-height="850"
     id="namedview27"
     showgrid="false"
     inkscape:zoom="1"
     inkscape:cx="177.52903"
     inkscape:cy="319.68389"
     inkscape:window-x="-8"
     inkscape:window-y="-8"
     inkscape:window-maximized="1"
     inkscape:current-layer="layer3" />
  <defs
     id="defs4">
    <radialGradient
       id="Gradient1"
       gradientUnits="userSpaceOnUse"
       cx="-80"
       cy="-80"
       r="405">
      <stop
         style="stop-color:#fff;stop-opacity:0.31"
         offset="0"
         id="stop7" />
      <stop
         style="stop-color:#fff;stop-opacity:0.25"
         offset="0.19"
         id="stop9" />
      <stop
         style="stop-color:#6b6b6b;stop-opacity:0.125"
         offset="0.6"
         id="stop11" />
      <stop
         style="stop-color:#000;stop-opacity:0.125"
         offset="1"
         id="stop13" />
    </radialGradient>
    <clipPath
       id="shield_cut">
      <path
         id="shield"
         d="M-298.5,-298.5 h597 v258.5 C 298.5,246.2 0,358.39 0,358.39 0,358.39 -298.5,246.2 -298.5,-40z" />
    </clipPath>
    <g
       id="f">
      <rect
         id="rect1964"
         style="fill:#28166f"
         y="-30"
         x="-50"
         height="60"
         width="100" />
      <g
         id="g1966"
         style="fill:#ffffff"
         transform="translate(0,-20)">
        <path
           id="path1968"
           d="M -1.2116,27.8178 C -1.2116,22.1752 -2.0914,20.4715 -4.5417,13.9804 C -5.709,10.8879 -5.0241,7.1025 -2.8585,3.6009 C -2.0824,2.346 -1.1136,1.2135 0,0 C 1.1136,1.2135 2.0824,2.346 2.8585,3.6009 C 5.0241,7.1025 5.709,10.8879 4.5417,13.9804 C 2.0914,20.4715 1.2116,22.1752 1.2116,27.8178 L -1.2116,27.8178 z" />
        <path
           id="rwi"
           d="M 2.9221,27.6725 C 2.9221,21.7209 5.2387,17.8293 8.5007,16.6604 C 9.9492,16.1414 11.8076,16.3869 13.5193,18.107 C 15.6379,20.236 16.2551,26.1004 10.0355,27.2283 C 10.6938,26.2724 10.6546,24.1467 9.3215,23.4409 C 8.3311,22.9165 7.209,23.1877 6.6462,23.5643 C 5.8225,24.1156 4.9171,25.6702 4.9672,27.6725 L 2.9221,27.6725 z" />
        <path
           id="path1971"
           d="M 1.7773,30.1835 C 1.7899,32.1913 2.7952,33.5181 4.5165,34.257 C 4.2948,34.9549 3.2566,36.3776 1.8314,36.2812 C 1.5499,37.787 1.2822,38.6324 0,40 C -1.2822,38.6324 -1.5499,37.787 -1.8314,36.2812 C -3.2566,36.3776 -4.2948,34.9549 -4.5165,34.257 C -2.7952,33.5181 -1.7899,32.1913 -1.7773,30.1835 L 1.7773,30.1835 z" />
        <use
           xlink:href="#rwi"
           height="400"
           width="800"
           y="0"
           x="0"
           id="use1973"
           transform="scale(-1,1)" />
        <rect
           id="rect1975"
           y="27.33077"
           x="-7.9229999"
           height="3.2179999"
           width="15.846" />
      </g>
    </g>
  </defs>
  <g
     id="layer4"
     inkscape:label="Fond écu"
     inkscape:groupmode="layer"
     sodipodi:insensitive="true">
    <use
       xlink:href="#shield"
       id="use18"
       style="fill:#2b5df2"
       x="0"
       y="0"
       width="600"
       height="660" />
    <path
       inkscape:connector-curvature="0"
       id="path3107"
       style="fill:#fcef3c;fill-opacity:1;fill-rule:evenodd;stroke:#000000;stroke-width:3;stroke-linecap:butt;stroke-linejoin:miter;stroke-miterlimit:4;stroke-opacity:1;stroke-dasharray:none"
       d="m -48.341271,-297.41278 0,274.829503 -250.158729,0 c 2.72823,39.819633 8.32154,64.1158 17,96 l 233.158729,0 0,261.982997 c 43.88016,23.44342 48.03125,23.1 48.03125,23.1 0,0 4.75269,-0.0576 46.03159,-21.1 L 45.722,73.416723 l 236.11139,0 c 6.8451,-24.51647 15.00119,-55.119897 15.93322,-96 l -252.045041,0 c -0.63184,-67.534683 0,-200.543593 0,-274.829503 z"
       sodipodi:nodetypes="cccccccccccccc"
       inkscape:export-xdpi="90"
       inkscape:export-ydpi="90" />
    <g
       style="display:inline"
       inkscape:label="chef"
       id="layer5"
       transform="translate(-300.08072,-300.21808)">
      <rect
         y="2.1139324"
         x="1.5319287"
         height="179.00894"
         width="596.46588"
         id="rect2230"
         style="fill:#ffffff;fill-opacity:1;fill-rule:nonzero;stroke:#000000;stroke-width:2.90240884;stroke-miterlimit:4;stroke-opacity:1;stroke-dasharray:none" />
    </g>
  </g>
  <g
     id="layer3"
     inkscape:label="Meubles"
     inkscape:groupmode="layer">
    <g
       id="g4363"
       transform="matrix(0.31166348,0,0,0.31166348,40.321224,-200.45507)">
      <path
         id="path3511"
         transform="translate(-300,-300)"
         d="m 76,19 0,35 55,0 0,195 -195,0 0,-55 -35,0 0,170 35,0 0,-55 195,0 0,195 -55,0 0,35 170,0 0,-35 -55,0 0,-195 195,0 0,55 35,0 0,-170 -35,0 0,55 -195,0 0,-195 55,0 0,-35 -170,0 z"
         style="fill:#e20909;stroke:#000000;stroke-width:9.62576675;stroke-miterlimit:4;stroke-dasharray:none"
         inkscape:connector-curvature="0" />
      <path
         id="rect3514"
         transform="translate(-300,-300)"
         d="m 16,94 0,40 -40,0 0,35 40,0 0,40 35,0 0,-40 40,0 0,-35 -40,0 0,-40 -35,0 z"
         style="fill:#e20909;stroke:#000000;stroke-width:9.62576675;stroke-miterlimit:4;stroke-dasharray:none"
         inkscape:connector-curvature="0" />
      <path
         id="rect4339"
         transform="translate(-300,-300)"
         d="m 271,349 0,40 -40,0 0,35 40,0 0,40 35,0 0,-40 40,0 0,-35 -40,0 0,-40 -35,0 z"
         style="fill:#e20909;stroke:#000000;stroke-width:9.62576675;stroke-miterlimit:4;stroke-dasharray:none"
         inkscape:connector-curvature="0" />
      <path
         id="rect4320"
         transform="translate(-300,-300)"
         d="m 271,94 0,40 -40,0 0,35 40,0 0,40 35,0 0,-40 40,0 0,-35 -40,0 0,-40 -35,0 z"
         style="fill:#e20909;stroke:#000000;stroke-width:9.62576675;stroke-miterlimit:4;stroke-dasharray:none"
         inkscape:connector-curvature="0" />
      <path
         id="rect4333"
         transform="translate(-300,-300)"
         d="m 14,349 0,40 -40,0 0,35 40,0 0,40 35,0 0,-40 40,0 0,-35 -40,0 0,-40 -35,0 z"
         style="fill:#e20909;stroke:#000000;stroke-width:9.62576675;stroke-miterlimit:4;stroke-dasharray:none"
         inkscape:connector-curvature="0" />
    </g>
    <g
       style="fill:#ffffff;fill-opacity:1;stroke:#000000;stroke-width:2.10493183;stroke-miterlimit:4;stroke-opacity:1;stroke-dasharray:none"
       transform="matrix(1.4256703,0,0,1.4247785,-210.98614,98.32288)"
       id="g2410">
      <g
         style="fill:#ffffff;fill-opacity:1;stroke:#000000;stroke-width:2.10493183;stroke-miterlimit:4;stroke-opacity:1;stroke-dasharray:none"
         id="g3266"
         transform="translate(2.8711313,0)" />
      <g
         style="fill:#ffffff;fill-opacity:1;stroke:#000000;stroke-width:2.10493183;stroke-miterlimit:4;stroke-opacity:1;stroke-dasharray:none"
         id="g2406">
        <path
           sodipodi:nodetypes="cccsssscssc"
           id="path2396"
           d="m 90.95296,47.211171 c 8.6857,-0.0011 18.21962,4.903231 18.1875,15.875 -0.19043,12.537384 -11.379433,18.40387 -20.489463,9.447081 3.373609,0.0041 4.968609,-1.900102 4.989463,-5.103331 0.01961,-3.011596 -2.542373,-7.45878 -7.15625,-7.4375 -9.04039,0.04172 -17.716292,8.838361 -17.6875,18.59375 0.01435,4.85935 1.022331,11.484978 6.6875,11.593748 2.69083,0.05235 6.70558,-0.86612 8.6875,-4.093748 2.4003,6.856898 -2.141099,11.534778 -8.375,11.468748 -8.29069,-0.0886 -13.700171,-8.91511 -13.78125,-18.999998 -0.12362,-15.44927 14.701391,-31.342 28.9375,-31.34375 z"
           style="fill:#ffffff;fill-opacity:1;fill-rule:evenodd;stroke:#000000;stroke-width:2.10493183;stroke-linecap:butt;stroke-linejoin:miter;stroke-miterlimit:4;stroke-opacity:1;stroke-dasharray:none"
           inkscape:connector-curvature="0" />
        <path
           sodipodi:nodetypes="cccsssscssc"
           id="path3145"
           d="m 20.797436,47.21117 c -8.6857,-0.0011 -18.2196213,4.903231 -18.1875003,15.875 0.19043,12.537384 11.3794333,18.40387 20.4894633,9.447081 -3.373609,0.0041 -4.968609,-1.900102 -4.989463,-5.103331 -0.01961,-3.011596 2.542373,-7.45878 7.15625,-7.4375 9.04039,0.04172 17.716292,8.838361 17.6875,18.59375 -0.01435,4.85935 -1.022331,11.484979 -6.6875,11.59375 -2.69083,0.05235 -6.70558,-0.866119 -8.6875,-4.09375 -2.4003,6.8569 2.141099,11.534781 8.375,11.46875 8.29069,-0.0886 13.700171,-8.915117 13.78125,-19 0.12362,-15.44927 -14.701391,-31.342 -28.9375,-31.34375 z"
           style="fill:#ffffff;fill-opacity:1;fill-rule:evenodd;stroke:#000000;stroke-width:2.10493183;stroke-linecap:butt;stroke-linejoin:miter;stroke-miterlimit:4;stroke-opacity:1;stroke-dasharray:none"
           inkscape:connector-curvature="0" />
      </g>
      <path
         style="fill:#ffffff;fill-opacity:1;fill-rule:evenodd;stroke:#000000;stroke-width:2.10493183;stroke-linecap:butt;stroke-linejoin:miter;stroke-miterlimit:4;stroke-opacity:1;stroke-dasharray:none"
         d="m 55.875009,0 c -8.20325,6.59183 -19.38225,17.20608 -19.2928,26.32919 0.17832,18.18738 15.22769,36.92513 15.08425,48.28459 -0.17521,13.87491 -3.9947,24.01316 -12.54658,24.06845 8.55188,4.6448 8.55188,4.6448 16.75513,16.672 7.53986,-12.0272 7.53986,-12.0272 16.39259,-16.30948 C 63.414869,98.62539 60.023669,88.52223 59.902269,74.43252 59.804589,63.0956 75.306499,44.51657 75.167789,26.32919 75.098079,17.1892 63.414869,6.51596 55.875009,0 z"
         id="path3217"
         sodipodi:nodetypes="csscccssc"
         inkscape:connector-curvature="0" />
      <path
         style="fill:#ffffff;fill-opacity:1;fill-rule:evenodd;stroke:#000000;stroke-width:2.10493183;stroke-linecap:butt;stroke-linejoin:miter;stroke-miterlimit:4;stroke-opacity:1;stroke-dasharray:none"
         d="m 40.940428,75.72634 c -3.18709,-0.18246 -3.55337,5.26934 0,5.27408 15.18485,-0.08836 15.18485,-0.07989 29.7014,0 3.81618,0.09695 3.37072,-5.45654 0,-5.27408 -14.51655,-0.18246 -14.51655,-0.18246 -29.7014,0 z"
         id="path3241"
         sodipodi:nodetypes="ccccc"
         inkscape:connector-curvature="0" />
    </g>
    <g
       style="fill:#fcef3c;stroke-width:2.15570283;stroke-miterlimit:4;stroke-dasharray:none;display:inline"
       inkscape:label="Meubles"
       id="g23186"
       transform="matrix(-0.69033153,0,0,0.69033153,204.56534,-400.99023)">
      <g
         style="fill:#fcef3c;fill-opacity:1;stroke-width:2.15570283;stroke-miterlimit:4;stroke-dasharray:none"
         id="g23188">
        <path
           style="fill:#fcef3c;fill-opacity:1;fill-rule:evenodd;stroke:#000000;stroke-width:4.34573793;stroke-linecap:butt;stroke-linejoin:round;stroke-miterlimit:4;stroke-opacity:1;stroke-dasharray:none"
           d="m 302.38095,616.34921 c -5.86894,-41.01569 -59.27999,-24.48636 -49.01377,-89.69906 4.08026,-17.33852 23.09464,-43.67401 -9.71639,-57.12634 11.11111,-4.29866 25.02821,-2.56359 31.64975,18.58271 28.20952,-28.22163 29.18849,-42.04818 12.00105,-64.28572 20.4594,-2.01569 45.30417,14.7818 36.08291,46.00839 5.45064,-4.50446 19.49975,9.29757 18.67899,28.26605 20.72929,27.50544 18.10733,42.10338 0.32874,66.80283 -5.92304,10.44566 -35.71055,24.46553 -40.01128,51.45114 z"
           id="path23190"
           sodipodi:nodetypes="ccccccccc"
           inkscape:connector-curvature="0" />
        <path
           style="fill:#fcef3c;fill-opacity:1;fill-rule:evenodd;stroke:#000000;stroke-width:4.34573793;stroke-linecap:butt;stroke-linejoin:round;stroke-miterlimit:4;stroke-opacity:1;stroke-dasharray:none"
           d="m 275.54717,487.15168 c -13.42219,20.04023 -4.60083,29.39279 -4.48957,30.86577"
           id="path23192"
           sodipodi:nodetypes="cc"
           inkscape:connector-curvature="0" />
        <path
           style="fill:#fcef3c;fill-opacity:1;fill-rule:evenodd;stroke:#000000;stroke-width:4.34573793;stroke-linecap:butt;stroke-linejoin:round;stroke-miterlimit:4;stroke-opacity:1;stroke-dasharray:none"
           d="m 300.23978,477.61135 c -2.11624,12.01502 -6.41407,17.50383 -12.9075,28.05979 -15.7136,23.0531 9.96825,42.00936 10.10153,54.99719 l 0,-1.12239"
           id="path23194"
           sodipodi:nodetypes="cccc"
           inkscape:connector-curvature="0" />
        <path
           style="fill:#fcef3c;fill-opacity:1;fill-rule:evenodd;stroke:#000000;stroke-width:4.34573793;stroke-linecap:butt;stroke-linejoin:round;stroke-miterlimit:4;stroke-opacity:1;stroke-dasharray:none"
           d="m 309.78011,511.2831 c -1.89968,-25.76435 9.91413,-27.11986 14.59109,-44.33447"
           id="path23196"
           sodipodi:nodetypes="cc"
           inkscape:connector-curvature="0" />
        <path
           style="fill:#fcef3c;fill-opacity:1;fill-rule:evenodd;stroke:#000000;stroke-width:4.34573793;stroke-linecap:butt;stroke-linejoin:round;stroke-miterlimit:4;stroke-opacity:1;stroke-dasharray:none"
           d="m 341.76828,497.81439 c 1.78545,20.35922 -15.23979,24.58016 -20.20305,52.19122"
           id="path23198"
           sodipodi:nodetypes="cc"
           inkscape:connector-curvature="0" />
      </g>
    </g>
    <g
       style="fill:#e20909;stroke-width:6.54576159;stroke-miterlimit:4;stroke-dasharray:none"
       id="g23200"
       transform="matrix(-0.22734553,0,0,0.22734553,78.760794,-45.032055)">
      <path
         id="path23202"
         style="fill:#e20909;fill-opacity:1;fill-rule:evenodd;stroke:#000000;stroke-width:13.19577312;stroke-linecap:butt;stroke-linejoin:miter;stroke-miterlimit:4;stroke-opacity:1;stroke-dasharray:none"
         d="M 367.3366,217.74722 C 533.26617,99.551778 616.00763,170.56423 609.18678,288.78134 598.04154,481.94782 440.30071,419.16285 455.30842,697.90644 298.77109,625.89662 127.83448,407.17178 125.48642,288.78134 123.13836,170.3909 201.40703,99.551778 367.3366,217.74722 z"
         inkscape:connector-curvature="0"
         sodipodi:nodetypes="cscsc" />
    </g>
  </g>
  <g
     id="layer2"
     inkscape:label="Reflet final"
     inkscape:groupmode="layer"
     sodipodi:insensitive="true">
    <use
       xlink:href="#shield"
       fill="url(#Gradient1)"
       id="use22" />
  </g>
  <g
     id="layer1"
     inkscape:label="Contour final"
     inkscape:groupmode="layer"
     sodipodi:insensitive="true">
    <use
       xlink:href="#shield"
       style="fill:none;stroke:#000;stroke-width:3"
       id="use25" />
  </g>
</svg>
