<?xml version="1.0" encoding="UTF-8" standalone="no"?>
<svg
   xmlns:dc="http://purl.org/dc/elements/1.1/"
   xmlns:cc="http://creativecommons.org/ns#"
   xmlns:rdf="http://www.w3.org/1999/02/22-rdf-syntax-ns#"
   xmlns:svg="http://www.w3.org/2000/svg"
   xmlns="http://www.w3.org/2000/svg"
   xmlns:xlink="http://www.w3.org/1999/xlink"
   xmlns:sodipodi="http://sodipodi.sourceforge.net/DTD/sodipodi-0.dtd"
   xmlns:inkscape="http://www.inkscape.org/namespaces/inkscape"
   width="600"
   height="660"
   viewBox="-300 -300 600 660"
   id="svg2"
   version="1.1"
   inkscape:version="0.48.2 r9819"
   sodipodi:docname="Ecu-Gaidon.svg"
   inkscape:export-filename="C:\Users\Emmanuel\Documents\Héraldique\Ecu-Gaidon.png"
   inkscape:export-xdpi="144"
   inkscape:export-ydpi="144">
  <metadata
     id="metadata29">
    <rdf:RDF>
      <cc:Work
         rdf:about="">
        <dc:format>image/svg+xml</dc:format>
        <dc:type
           rdf:resource="http://purl.org/dc/dcmitype/StillImage" />
        <dc:title></dc:title>
      </cc:Work>
    </rdf:RDF>
  </metadata>
  <sodipodi:namedview
     pagecolor="#ffffff"
     bordercolor="#666666"
     borderopacity="1"
     objecttolerance="10"
     gridtolerance="10"
     guidetolerance="10"
     inkscape:pageopacity="0"
     inkscape:pageshadow="2"
     inkscape:window-width="1440"
     inkscape:window-height="850"
     id="namedview27"
     showgrid="false"
     inkscape:zoom="1"
     inkscape:cx="121.5"
     inkscape:cy="330"
     inkscape:window-x="-8"
     inkscape:window-y="-8"
     inkscape:window-maximized="1"
     inkscape:current-layer="layer3" />
  <defs
     id="defs4">
    <radialGradient
       id="Gradient1"
       gradientUnits="userSpaceOnUse"
       cx="-80"
       cy="-80"
       r="405">
      <stop
         style="stop-color:#fff;stop-opacity:0.31"
         offset="0"
         id="stop7" />
      <stop
         style="stop-color:#fff;stop-opacity:0.25"
         offset="0.19"
         id="stop9" />
      <stop
         style="stop-color:#6b6b6b;stop-opacity:0.125"
         offset="0.6"
         id="stop11" />
      <stop
         style="stop-color:#000;stop-opacity:0.125"
         offset="1"
         id="stop13" />
    </radialGradient>
    <clipPath
       id="shield_cut">
      <path
         id="shield"
         d="M-298.5,-298.5 h597 v258.5 C 298.5,246.2 0,358.39 0,358.39 0,358.39 -298.5,246.2 -298.5,-40z" />
    </clipPath>
  </defs>
  <g
     id="layer4"
     inkscape:label="Fond écu"
     inkscape:groupmode="layer"
     sodipodi:insensitive="true"
     style="display:inline">
    <use
       xlink:href="#shield"
       id="use18"
       style="fill:#2b5df2"
       x="0"
       y="0"
       width="600"
       height="660" />
    <path
       style="fill:#ffffff;stroke:#000000;stroke-width:3;stroke-miterlimit:4;stroke-dasharray:none"
       d="M -282.625,68.515 C -220.87014,273.89438 0,356.89 0,356.89 c 0,0 220.87014,-82.99562 282.625,-288.375 l -565.25,0 z"
       id="use3787"
       inkscape:connector-curvature="0" />
  </g>
  <g
     id="layer3"
     inkscape:label="Meubles"
     inkscape:groupmode="layer">
    <path
       sodipodi:type="star"
       style="fill:#2b5df2;fill-opacity:1;fill-rule:evenodd;stroke:#000000;stroke-width:2.29268289;stroke-linecap:butt;stroke-linejoin:bevel;stroke-miterlimit:4;stroke-opacity:1;stroke-dasharray:none"
       id="path3838"
       sodipodi:sides="6"
       sodipodi:cx="107"
       sodipodi:cy="399"
       sodipodi:r1="47"
       sodipodi:r2="17.026342"
       sodipodi:arg1="1.5707963"
       sodipodi:arg2="2.0750047"
       inkscape:flatsided="false"
       inkscape:rounded="0"
       inkscape:randomized="0"
       d="M 107,446 98.774327,413.90754 66.296807,422.5 89.976858,399.33013 66.296805,375.5 98.202531,384.42259 107,352 115.22567,384.09246 147.70319,375.5 124.02314,398.66987 147.70319,422.5 115.79747,413.57741 z"
       transform="matrix(1.3085106,0,0,1.3085106,-297.01063,-369.09573)" />
    <path
       style="fill:#fcef3c;stroke:#000000;stroke-width:3;stroke-linecap:butt;stroke-linejoin:miter;stroke-miterlimit:4;stroke-opacity:1;stroke-dasharray:none"
       d="m -56.153332,-131.19023 -171.846658,-6.97317 172.999991,19.43292 -172.999991,0.32439 172.999991,12.78414 -172.999991,9.297561 171.846658,2.32439 L -229,-76 -55,-83"
       id="path3909"
       inkscape:connector-curvature="0"
       sodipodi:nodetypes="ccccccccc" />
    <use
       x="0"
       y="0"
       xlink:href="#path3909"
       id="use3932"
       transform="matrix(-1,0,0,1,-18.99999,0)"
       width="600"
       height="660" />
    <path
       sodipodi:nodetypes="ccccccccc"
       inkscape:connector-curvature="0"
       id="use3934"
       d="m -15.249931,-164.42624 -78.583159,-85.44472 70.588313,95.07062 -97.558843,-94.10009 88.289712,103.36922 -116.903832,-102.7551 107.870345,110.15753 -134.948975,-109.49313 127.98633,118.08683"
       style="fill:#fcef3c;stroke:#000000;stroke-width:3;stroke-linecap:butt;stroke-linejoin:miter;stroke-miterlimit:4;stroke-opacity:1;stroke-dasharray:none" />
    <use
       x="0"
       y="0"
       xlink:href="#use3934"
       id="use3936"
       transform="matrix(-1,0,0,1,-5.7463,0)"
       width="600"
       height="660" />
    <use
       x="0"
       y="0"
       xlink:href="#use3934"
       id="use3940"
       transform="matrix(1,0,0,-1,10,-219.40604)"
       width="600"
       height="660" />
    <use
       x="0"
       y="0"
       xlink:href="#use3936"
       id="use3942"
       transform="matrix(1,0,0,-1,-8,-219.40604)"
       width="600"
       height="660" />
    <g
       id="g4075"
       style="fill:#fcef3c;stroke-width:0.85751212;stroke-miterlimit:4;stroke-dasharray:none"
       transform="matrix(-1.4170607,-1.4170607,-1.4170607,1.4170607,103.60079,-521.41733)">
      <g
         transform="matrix(0.2812784,0.2812784,-0.2812784,0.2812784,-16.311993,-76.918272)"
         id="g23186"
         inkscape:label="Meubles"
         style="fill:#fcef3c;stroke-width:2.15570283;stroke-miterlimit:4;stroke-dasharray:none;display:inline">
        <g
           id="g23188"
           style="fill:#fcef3c;fill-opacity:1;stroke-width:2.15570283;stroke-miterlimit:4;stroke-dasharray:none">
          <path
             inkscape:connector-curvature="0"
             sodipodi:nodetypes="ccccccccc"
             id="path23190"
             d="m 302.38095,616.34921 c -5.86894,-41.01569 -59.27999,-24.48636 -49.01377,-89.69906 4.08026,-17.33852 23.09464,-43.67401 -9.71639,-57.12634 11.11111,-4.29866 25.02821,-2.56359 31.64975,18.58271 28.20952,-28.22163 29.18849,-42.04818 12.00105,-64.28572 20.4594,-2.01569 45.30417,14.7818 36.08291,46.00839 5.45064,-4.50446 19.49975,9.29757 18.67899,28.26605 20.72929,27.50544 18.10733,42.10338 0.32874,66.80283 -5.92304,10.44566 -35.71055,24.46553 -40.01128,51.45114 z"
             style="fill:#fcef3c;fill-opacity:1;fill-rule:evenodd;stroke:#000000;stroke-width:3.7632792;stroke-linecap:butt;stroke-linejoin:round;stroke-miterlimit:4;stroke-opacity:1;stroke-dasharray:none" />
          <path
             inkscape:connector-curvature="0"
             sodipodi:nodetypes="cc"
             id="path23192"
             d="m 275.54717,487.15168 c -13.42219,20.04023 -4.60083,29.39279 -4.48957,30.86577"
             style="fill:#fcef3c;fill-opacity:1;fill-rule:evenodd;stroke:#000000;stroke-width:3.7632792;stroke-linecap:butt;stroke-linejoin:round;stroke-miterlimit:4;stroke-opacity:1;stroke-dasharray:none" />
          <path
             inkscape:connector-curvature="0"
             sodipodi:nodetypes="cccc"
             id="path23194"
             d="m 300.23978,477.61135 c -2.11624,12.01502 -6.41407,17.50383 -12.9075,28.05979 -15.7136,23.0531 9.96825,42.00936 10.10153,54.99719 l 0,-1.12239"
             style="fill:#fcef3c;fill-opacity:1;fill-rule:evenodd;stroke:#000000;stroke-width:3.7632792;stroke-linecap:butt;stroke-linejoin:round;stroke-miterlimit:4;stroke-opacity:1;stroke-dasharray:none" />
          <path
             inkscape:connector-curvature="0"
             sodipodi:nodetypes="cc"
             id="path23196"
             d="m 309.78011,511.2831 c -1.89968,-25.76435 9.91413,-27.11986 14.59109,-44.33447"
             style="fill:#fcef3c;fill-opacity:1;fill-rule:evenodd;stroke:#000000;stroke-width:3.7632792;stroke-linecap:butt;stroke-linejoin:round;stroke-miterlimit:4;stroke-opacity:1;stroke-dasharray:none" />
          <path
             inkscape:connector-curvature="0"
             sodipodi:nodetypes="cc"
             id="path23198"
             d="m 341.76828,497.81439 c 1.78545,20.35922 -15.23979,24.58016 -20.20305,52.19122"
             style="fill:#fcef3c;fill-opacity:1;fill-rule:evenodd;stroke:#000000;stroke-width:3.7632792;stroke-linecap:butt;stroke-linejoin:round;stroke-miterlimit:4;stroke-opacity:1;stroke-dasharray:none" />
        </g>
      </g>
      <g
         transform="matrix(0.09263286,0.09263286,-0.09263286,0.09263286,-110.08903,119.37791)"
         id="g23200"
         style="fill:#fcef3c;stroke-width:6.54576159;stroke-miterlimit:4;stroke-dasharray:none">
        <path
           inkscape:connector-curvature="0"
           d="m 367.3366,217.74722 c 331.85915,-236.390884 313.07467,239.37058 0,383.39022 -313.074666,-144.01964 -331.859147,-619.781104 0,-383.39022 z"
           style="fill:#fcef3c;fill-opacity:1;fill-rule:evenodd;stroke:#000000;stroke-width:11.427145;stroke-linecap:butt;stroke-linejoin:miter;stroke-miterlimit:4;stroke-opacity:1;stroke-dasharray:none"
           id="path23202" />
      </g>
    </g>
  </g>
  <g
     id="layer2"
     inkscape:label="Reflet final"
     inkscape:groupmode="layer"
     sodipodi:insensitive="true">
    <use
       xlink:href="#shield"
       fill="url(#Gradient1)"
       id="use22" />
  </g>
  <g
     id="layer1"
     inkscape:label="Contour final"
     inkscape:groupmode="layer"
     sodipodi:insensitive="true">
    <use
       xlink:href="#shield"
       style="fill:none;stroke:#000;stroke-width:3"
       id="use25" />
  </g>
</svg>
