<?xml version="1.0" encoding="UTF-8" standalone="no"?>
<!-- Created with Inkscape (http://www.inkscape.org/) -->

<svg
   xmlns:dc="http://purl.org/dc/elements/1.1/"
   xmlns:cc="http://creativecommons.org/ns#"
   xmlns:rdf="http://www.w3.org/1999/02/22-rdf-syntax-ns#"
   xmlns:svg="http://www.w3.org/2000/svg"
   xmlns="http://www.w3.org/2000/svg"
   version="1.1"
   width="350.92001"
   height="438.47"
   id="svg2">
  <metadata
     id="metadata24">
    <rdf:RDF>
      <cc:Work
         rdf:about="">
        <dc:format>image/svg+xml</dc:format>
        <dc:type
           rdf:resource="http://purl.org/dc/dcmitype/StillImage" />
        <dc:title></dc:title>
      </cc:Work>
    </rdf:RDF>
  </metadata>
  <defs
     id="defs22" />
  <circle
     cx="147.60001"
     cy="145"
     r="144.3"
     transform="translate(0.51382074,3.9803822)"
     id="circle4"
     style="fill:#b3b3b3" />
  <circle
     cx="154.39999"
     cy="151.7"
     r="137.60001"
     transform="translate(0.51382074,3.9803822)"
     id="circle6"
     style="fill:#8f0000" />
  <path
     d="m 63.053821,121.98038 c 26.46,-31.989998 76.509999,-36.939998 39.479999,7.6 m 152.4,23.94 6.5,-32.91 c -41.37,-10.04 -106,-34.619998 -106,-34.619998 l -36.84,21.999998"
     id="path8"
     style="fill:#b3b3b3" />
  <path
     d="m 121.81382,225.98038 23.7,43.4 40.2,-39.3 c 0,0 -11.9,-41.1 13.6,-49.3 m 78.6,-58.5 21.4,-17.1 -15.1,139.6 -29.2,59.5 m -127.9,-231.799998 33.8,-13.34 -5.5,26.82 -24.3,22.369998 m 72.4,27.2 23.2,-24.8 5.9,-27.799998 -32.2,19.709998"
     id="path10"
     style="fill:#666666" />
  <path
     d="m 237.01382,111.18038 26.4,-17.909998 35.8,11.909998 -19.2,20.4 M 99.613824,65.210382 l 32.569996,-15.85 28.6,9.8 -26.8,17.19 m 36.3,11.66 28.2,-16.48 34.1,11.43 -25,18.379998 m 65.8,69.44 21.6,-26.7 c 13.3,-0.4 29.9,3.4 38.9,13.5 37.7,42.7 -17.2,86.5 -17.2,86.5"
     id="path12"
     style="fill:#b3b3b3" />
  <path
     d="m 170.31382,88.010382 -2.8,32.969998 -36.4,-12.7 2.9,-31.929998 -34.369996,-11.13 1.869996,48.459998 c -8.919999,-5.9 -21.689999,-9.1 -35.299999,4.6 -16.88,16.8 -10.33,51.2 12.74,62.1 11.94,5.6 20.000003,7 25.359999,6.8 l 2.1,56.2 c 0,0 15.9,12.8 39.1,26 -4,-12.1 -12.3,-43.2 4.2,-56.9 17.8,-14.6 47.6,-16.1 64.7,18.6 14,28.6 -1.2,51.4 -9.2,60.6 25.3,6.7 49.8,12.6 49.8,12.6 l 8.1,-58.9 c 6.4,3.5 23.6,11.9 35.5,8.9 34.3,-8.7 33.1,-46.9 15.9,-68.3 -14.1,-17.6 -35,-16.1 -41.1,-15.2 l 6.6,-45.2 -43,-14.4 -2.5,32.2 -30.7,-10.2 3.8,-31.83"
     id="path14"
     style="fill:#ffffff" />
  <g
     transform="translate(-97.9099,-209.31838)"
     id="g39">
    <path
       d="m 139.071,592.807 h 33.186 v 8.019 l -18.059,18.396 h 19.171 v 9.366 h -35.646 v -8.895 l 17.152,-17.52 h -15.804 v -9.366 z"
       id="z01"
       style="fill:#4d4d4d" />
    <path
       d="m 192.53,604.396 -13.106,-1.382 c 0.494,-2.291 1.207,-4.093 2.139,-5.407 0.932,-1.313 2.274,-2.453 4.026,-3.419 1.258,-0.696 2.987,-1.235 5.188,-1.617 2.201,-0.382 4.582,-0.573 7.143,-0.573 4.11,0 7.412,0.23 9.905,0.69 2.493,0.461 4.57,1.421 6.233,2.881 1.167,1.011 2.089,2.442 2.763,4.296 0.674,1.853 1.011,3.622 1.011,5.306 v 15.802 c 0,1.685 0.106,3.004 0.32,3.959 0.214,0.955 0.679,2.173 1.398,3.655 h -12.87 c -0.517,-0.921 -0.854,-1.622 -1.011,-2.105 -0.157,-0.483 -0.315,-1.241 -0.472,-2.274 -1.797,1.729 -3.583,2.965 -5.357,3.706 -2.426,0.988 -5.245,1.482 -8.457,1.482 -4.268,0 -7.508,-0.988 -9.72,-2.965 -2.213,-1.977 -3.319,-4.414 -3.319,-7.311 0,-2.718 0.797,-4.953 2.392,-6.705 1.595,-1.752 4.537,-3.055 8.827,-3.908 5.143,-1.033 8.479,-1.757 10.006,-2.173 1.527,-0.416 3.145,-0.96 4.852,-1.634 0,-1.686 -0.349,-2.864 -1.044,-3.538 -0.696,-0.674 -1.92,-1.011 -3.672,-1.011 -2.246,0 -3.931,0.359 -5.054,1.078 -0.875,0.562 -1.582,1.618 -2.121,3.167 z m 11.893,7.21 c -1.887,0.674 -3.853,1.27 -5.896,1.785 -2.785,0.742 -4.548,1.472 -5.29,2.19 -0.764,0.741 -1.146,1.583 -1.146,2.526 0,1.078 0.376,1.96 1.128,2.646 0.752,0.686 1.858,1.027 3.319,1.027 1.527,0 2.948,-0.37 4.262,-1.112 1.313,-0.74 2.246,-1.645 2.796,-2.712 0.55,-1.066 0.826,-2.453 0.826,-4.161 v -2.189 z"
       id="a01"
       style="fill:#4d4d4d" />
    <path
       d="m 227.829,579.195 h 13.847 v 17.115 c 1.37,-1.438 2.925,-2.516 4.666,-3.234 1.741,-0.718 3.667,-1.078 5.778,-1.078 4.357,0 7.962,1.566 10.815,4.7 2.852,3.133 4.279,7.631 4.279,13.493 0,3.908 -0.652,7.351 -1.954,10.326 -1.303,2.977 -3.105,5.2 -5.407,6.671 -2.303,1.471 -4.857,2.207 -7.665,2.207 -2.404,0 -4.604,-0.517 -6.604,-1.55 -1.505,-0.809 -3.145,-2.325 -4.919,-4.548 v 5.289 h -12.836 v -49.391 z m 13.746,31.401 c 0,3.077 0.578,5.307 1.735,6.688 1.157,1.382 2.623,2.072 4.397,2.072 1.639,0 3.015,-0.679 4.127,-2.038 1.111,-1.359 1.667,-3.645 1.667,-6.856 0,-2.83 -0.545,-4.907 -1.634,-6.233 -1.089,-1.324 -2.409,-1.987 -3.958,-1.987 -1.865,0 -3.386,0.69 -4.565,2.072 -1.18,1.379 -1.769,3.474 -1.769,6.282 z"
       id="b02"
       style="fill:#4d4d4d" />
    <path
       d="m 270.877,592.807 h 14.469 l 7.38,23.819 6.854,-23.819 h 13.513 l -14.196,38.23 c -1.617,4.36 -3.267,7.305 -4.95,8.834 -2.38,2.157 -6.006,3.237 -10.878,3.237 -1.976,0 -5.029,-0.27 -9.16,-0.809 l -1.077,-9.568 c 1.975,0.628 4.174,0.943 6.598,0.943 1.616,0 2.923,-0.372 3.921,-1.113 0.999,-0.743 1.846,-2.069 2.542,-3.98 l -15.016,-35.774 z"
       id="y01"
       style="fill:#4d4d4d" />
    <path
       d="m 334.544,579.195 v 13.611 h 7.547 v 10.04 h -7.547 v 12.677 c 0,1.524 0.146,2.533 0.438,3.025 0.448,0.763 1.234,1.144 2.357,1.144 1.012,0 2.426,-0.291 4.246,-0.874 l 1.01,9.466 c -3.392,0.74 -6.559,1.111 -9.5,1.111 -3.415,0 -5.93,-0.438 -7.547,-1.312 -1.617,-0.874 -2.813,-2.203 -3.589,-3.987 -0.774,-1.783 -1.162,-4.671 -1.162,-8.664 v -12.585 h -5.054 v -10.04 h 5.054 v -6.569 l 13.747,-7.043 z"
       id="t01"
       style="fill:#4d4d4d" />
    <path
       d="m 349.663,579.195 h 14.016 v 25.495 l 10.242,-11.884 H 390.8 l -12.836,12.534 13.577,23.246 h -15.45 l -7.247,-14.343 -5.165,5.044 v 9.299 h -14.016 v -49.391 z"
       id="k02"
       style="fill:#4d4d4d" />
    <path
       d="m 397.226,579.195 h 13.712 v 9.333 h -13.712 v -9.333 z m 0,13.612 h 13.712 v 35.78 h -13.712 v -35.78 z"
       id="i04"
       style="fill:#4d4d4d" />
  </g>
  <g
     transform="translate(19.009111,-4.680367)"
     id="wikilubi">
    <g
       transform="matrix(1.2522988,0,0,1.2522988,-165.36732,-348.09511)"
       id="wiki">
      <path
         d="m 177.413,530.611 c -0.364,-0.364 -0.364,-1.639 0,-2.003 2.427,0.061 5.097,0.121 6.675,0.121 1.578,0 3.034,-0.061 5.279,-0.121 0.364,0.364 0.364,1.639 0,2.003 -3.337,0.182 -4.491,1.577 -5.219,3.701 l -11.955,32.891 c -0.303,0.911 -0.789,1.396 -1.638,1.396 -0.789,0 -1.517,-0.425 -1.881,-1.457 l -7.1,-21.543 c -0.279,-0.837 -0.607,-1.699 -0.85,-1.699 -0.303,0 -0.606,0.789 -0.85,1.518 l -8.435,21.725 c -0.303,0.85 -0.85,1.457 -1.699,1.457 -0.91,0 -1.578,-0.485 -1.881,-1.457 l -11.044,-33.012 c -1.093,-3.259 -1.76,-3.338 -4.491,-3.52 -0.364,-0.364 -0.364,-1.639 0,-2.003 2.427,0.061 3.216,0.121 5.644,0.121 2.367,0 4.854,-0.061 6.857,-0.121 0.364,0.364 0.364,1.639 0,2.003 -2.124,0.121 -3.726,0.412 -3.034,2.549 l 9.103,27.975 h 0.121 l 7.646,-20.086 c 0.291,-0.771 0.425,-1.518 0.425,-2.307 0,-0.546 -0.067,-0.971 -0.304,-1.698 l -0.91,-2.792 c -0.51,-1.571 -2.063,-3.459 -5.279,-3.641 -0.364,-0.364 -0.364,-1.639 0,-2.003 2.427,0.061 3.702,0.121 6.068,0.121 2.427,0 4.551,-0.061 7.403,-0.121 0.364,0.364 0.364,1.639 0,2.003 -2.063,0.182 -4.211,0.37 -3.156,3.641 l 8.739,27.005 h 0.122 l 9.648,-27.672 c 0.905,-2.592 -1.517,-2.792 -4.004,-2.974 z"
         id="w01"
         style="fill:#4d4d4d" />
      <path
         d="m 208.185,565.99 c 0.364,0.363 0.364,1.638 0,2.002 -3.034,-0.061 -4.794,-0.121 -7.828,-0.121 -3.095,0 -4.916,0.061 -7.889,0.121 -0.364,-0.364 -0.364,-1.639 0,-2.002 4.248,-0.183 5.28,-0.485 5.28,-5.522 v -24.335 c 0,-5.036 -1.032,-5.34 -5.28,-5.521 -0.364,-0.364 -0.364,-1.639 0,-2.003 3.034,0.061 4.794,0.121 7.829,0.121 3.095,0 4.915,-0.061 7.889,-0.121 0.364,0.364 0.364,1.639 0,2.003 -4.248,0.182 -5.279,0.485 -5.279,5.521 v 24.335 c -0.001,5.037 1.03,5.34 5.278,5.522 z"
         id="i01"
         style="fill:#4d4d4d" />
      <path
         d="m 227.666,565.99 c 0.364,0.363 0.364,1.638 0,2.002 -3.034,-0.061 -4.794,-0.121 -7.828,-0.121 -3.095,0 -4.916,0.061 -7.889,0.121 -0.364,-0.364 -0.364,-1.639 0,-2.002 4.248,-0.183 5.28,-0.485 5.28,-5.522 v -24.335 c 0,-5.036 -1.032,-5.34 -5.28,-5.521 -0.364,-0.364 -0.364,-1.639 0,-2.003 3.034,0.061 4.794,0.121 7.829,0.121 3.095,0 4.915,-0.061 7.889,-0.121 0.364,0.364 0.364,1.639 0,2.003 -4.248,0.182 -5.279,0.485 -5.279,5.521 v 10.663 c 2.124,-0.183 3.392,-1.074 4.612,-2.349 l 10.195,-10.681 c 2.919,-3.24 0.492,-2.949 -1.699,-3.155 -0.364,-0.364 -0.364,-1.639 0,-2.003 2.853,0.061 4.43,0.121 6.857,0.121 2.427,0 2.913,-0.061 5.765,-0.121 0.364,0.364 0.364,1.639 0,2.003 -2.427,0.303 -5.098,0.425 -7.889,3.398 l -8.496,9.163 c -1.984,2.142 -2.245,2.549 -2.245,2.974 0,0.485 0.182,0.91 0.728,1.517 l 13.29,15.778 c 2.039,2.524 4.254,2.391 5.34,2.549 0.364,0.363 0.364,1.638 0,2.002 -2.852,-0.061 -3.762,-0.121 -6.129,-0.121 -1.821,0 -2.852,0.061 -4.066,0.121 -0.243,0 -0.303,-0.182 -0.303,-0.364 0,-1.104 -0.006,-2.718 -1.214,-4.187 l -9.892,-12.016 c -1.213,-1.56 -2.815,-2.239 -4.854,-2.3 v 11.342 c -0.001,5.038 1.03,5.341 5.278,5.523 z"
         id="k01"
         style="fill:#4d4d4d" />
      <path
         d="m 268.571,565.99 c 0.364,0.363 0.364,1.638 0,2.002 -3.034,-0.061 -4.794,-0.121 -7.828,-0.121 -3.095,0 -4.916,0.061 -7.889,0.121 -0.364,-0.364 -0.364,-1.639 0,-2.002 4.248,-0.183 5.28,-0.485 5.28,-5.522 v -24.335 c 0,-5.036 -1.032,-5.34 -5.28,-5.521 -0.364,-0.364 -0.364,-1.639 0,-2.003 3.034,0.061 4.794,0.121 7.829,0.121 3.095,0 4.915,-0.061 7.889,-0.121 0.364,0.364 0.364,1.639 0,2.003 -4.248,0.182 -5.279,0.485 -5.279,5.521 v 24.335 c -0.001,5.037 1.03,5.34 5.278,5.522 z"
         id="i02"
         style="fill:#4d4d4d" />
    </g>
    <g
       transform="translate(-96.05101,-204.638)"
       id="lubi">
      <path
         d="m 282.105,518.159 h 13.745 v 49.392 h -13.745 v -49.392 z"
         id="l01"
         style="fill:#8f0000" />
      <path
         d="M 342.312,567.551 H 329.51 v -5.795 c -1.909,2.381 -3.836,4.076 -5.778,5.088 -1.942,1.01 -4.329,1.516 -7.159,1.516 -3.773,0 -6.733,-1.129 -8.878,-3.386 -2.145,-2.258 -3.217,-5.733 -3.217,-10.428 v -22.775 h 13.779 v 19.676 c 0,2.246 0.415,3.841 1.246,4.784 0.831,0.943 1.999,1.415 3.504,1.415 1.64,0 2.982,-0.629 4.026,-1.887 1.045,-1.258 1.567,-3.515 1.567,-6.772 v -17.216 h 13.712 v 35.78 z"
         id="u01"
         style="fill:#8f0000" />
      <path
         d="m 350.7,518.159 h 13.848 v 17.115 c 1.37,-1.438 2.926,-2.516 4.666,-3.234 1.74,-0.718 3.667,-1.078 5.778,-1.078 4.357,0 7.962,1.566 10.815,4.7 2.852,3.133 4.278,7.631 4.278,13.493 0,3.908 -0.651,7.351 -1.954,10.326 -1.303,2.977 -3.105,5.2 -5.407,6.671 -2.303,1.471 -4.857,2.207 -7.665,2.207 -2.403,0 -4.604,-0.517 -6.604,-1.55 -1.505,-0.809 -3.145,-2.325 -4.919,-4.548 v 5.289 H 350.7 v -49.391 z m 13.746,31.401 c 0,3.077 0.578,5.307 1.735,6.688 1.157,1.382 2.622,2.072 4.397,2.072 1.639,0 3.015,-0.679 4.127,-2.038 1.111,-1.359 1.668,-3.645 1.668,-6.856 0,-2.83 -0.545,-4.907 -1.635,-6.233 -1.09,-1.324 -2.408,-1.987 -3.959,-1.987 -1.864,0 -3.386,0.69 -4.564,2.072 -1.179,1.379 -1.769,3.474 -1.769,6.282 z"
         id="b01"
         style="fill:#8f0000" />
      <path
         d="m 397.162,518.159 h 13.712 v 9.333 h -13.712 v -9.333 z m 0,13.612 h 13.712 v 35.78 h -13.712 v -35.78 z"
         id="i03"
         style="fill:#8f0000" />
    </g>
  </g>
</svg>
